<?xml version="1.0" encoding="utf-8"?>
<!-- Generator: Adobe Illustrator 26.2.1, SVG Export Plug-In . SVG Version: 6.00 Build 0)  -->
<svg version="1.1" id="Layer_1" xmlns:v="https://vecta.io/nano"
	 xmlns="http://www.w3.org/2000/svg" xmlns:xlink="http://www.w3.org/1999/xlink" x="0px" y="0px" viewBox="0 0 42 58"
	 style="enable-background:new 0 0 42 58;" xml:space="preserve">
<style type="text/css">
	.st0{enable-background:new    ;}
	.st1{fill:#FFFFFF;}
	.st2{fill:url(#SVGID_1_);}
	.st3{fill:url(#SVGID_00000078723110309302692110000015361206437970508933_);}
	.st4{fill:url(#SVGID_00000077304602421835000030000000239303798989993651_);}
</style>
<g>
	<g>
		<g class="st0">
			<path class="st1" d="M0.4,48.9h3.1L5,51.3l1.5-2.3h3.1l-2.9,4.3l3.2,4.7H6.7L5,55.3l-1.7,2.6H0.2l3.2-4.6L0.4,48.9z"/>
			<path class="st1" d="M14.6,48.9h2.7v9h-2.7V48.9z"/>
			<path class="st1" d="M33.9,48.9h7.9V51h-2.6v6.9h-2.7V51h-2.6V48.9z"/>
		</g>
		<g>
			<linearGradient id="SVGID_1_" gradientUnits="userSpaceOnUse" x1="0.3122" y1="20.8491" x2="41.7305" y2="20.8491">
				<stop  offset="0" style="stop-color:#FE1065"/>
				<stop  offset="0.1077" style="stop-color:#FD3854"/>
				<stop  offset="0.2186" style="stop-color:#FD5A45"/>
				<stop  offset="0.3101" style="stop-color:#FC6F3C"/>
				<stop  offset="0.3702" style="stop-color:#FC7739"/>
				<stop  offset="0.4845" style="stop-color:#CF8E56"/>
				<stop  offset="0.7382" style="stop-color:#70BD94"/>
				<stop  offset="0.9157" style="stop-color:#34DBBB"/>
				<stop  offset="1" style="stop-color:#1DE7CA"/>
			</linearGradient>
			<polygon class="st2" points="40.5,0.1 0.3,40.4 1.5,41.6 41.7,1.3 			"/>
			
				<linearGradient id="SVGID_00000042699529356484964870000013469503613963914938_" gradientUnits="userSpaceOnUse" x1="27.1057" y1="34.2653" x2="41.7314" y2="34.2653">
				<stop  offset="0.1679" style="stop-color:#FC7739"/>
				<stop  offset="0.2816" style="stop-color:#FB7E3A"/>
				<stop  offset="0.4438" style="stop-color:#F8903E"/>
				<stop  offset="0.6351" style="stop-color:#F4AF44"/>
				<stop  offset="0.8469" style="stop-color:#EDDA4D"/>
				<stop  offset="1" style="stop-color:#E8FD54"/>
			</linearGradient>
			<polygon style="fill:url(#SVGID_00000042699529356484964870000013469503613963914938_);" points="28.3,26.9 27.1,28.1 40.5,41.6 
				41.7,40.4 			"/>
			
				<linearGradient id="SVGID_00000076597907352579397490000010752020721943078318_" gradientUnits="userSpaceOnUse" x1="0.312" y1="7.4167" x2="14.9376" y2="7.4167">
				<stop  offset="0" style="stop-color:#FC7739"/>
				<stop  offset="0" style="stop-color:#F5723B"/>
				<stop  offset="0" style="stop-color:#E36342"/>
				<stop  offset="0" style="stop-color:#C44B4C"/>
				<stop  offset="0" style="stop-color:#992A5B"/>
				<stop  offset="0" style="stop-color:#700A69"/>
				<stop  offset="0.5277" style="stop-color:#FE1065"/>
				<stop  offset="0.6628" style="stop-color:#FD3754"/>
				<stop  offset="0.8052" style="stop-color:#FC5945"/>
				<stop  offset="0.9228" style="stop-color:#FB6E3C"/>
				<stop  offset="1" style="stop-color:#FB7639"/>
			</linearGradient>
			<polygon style="fill:url(#SVGID_00000076597907352579397490000010752020721943078318_);" points="14.9,13.6 1.5,0.1 0.3,1.3 
				13.7,14.7 			"/>
		</g>
	</g>
	<path class="st1" d="M30.1,54.5c-0.3-1.1-1.1-2.1-2.2-2.1c0,0-2.6,0-2.6,0c-0.4,0-0.7-0.3-0.7-0.7s0.3-0.7,0.7-0.7h0.1h2.3h1.8
		v-2.1H25c-1.3,0-2.4,0.9-2.7,2.1c-0.1,0.2-0.1,0.5-0.1,0.7c0,0.2,0,0.5,0.1,0.7c0.3,1.1,1.3,2,2.5,2.1c0,0,0,0,0,0l2.6,0
		c0.1,0,0.2,0,0.2,0.1c0.2,0.1,0.3,0.3,0.3,0.6c0,0.2-0.1,0.4-0.2,0.5c-0.1,0.1-0.2,0.1-0.4,0.1h-0.2h-2.3h-2.1v2.1h5v0
		c1.2-0.1,2.2-1,2.5-2.1c0-0.2,0.1-0.4,0.1-0.6C30.2,54.9,30.2,54.7,30.1,54.5z"/>
</g>
</svg>
